<mxfile host="Electron" modified="2023-05-07T16:06:19.747Z" agent="Mozilla/5.0 (Windows NT 10.0; Win64; x64) AppleWebKit/537.36 (KHTML, like Gecko) draw.io/21.2.1 Chrome/112.0.5615.87 Electron/24.1.2 Safari/537.36" etag="m__y3Etrk8yww2N3ekci" version="21.2.1" type="device">
  <diagram id="R2lEEEUBdFMjLlhIrx00" name="Page-1">
    <mxGraphModel dx="2363" dy="1397" grid="1" gridSize="10" guides="1" tooltips="1" connect="1" arrows="1" fold="1" page="1" pageScale="1" pageWidth="850" pageHeight="1100" math="0" shadow="0" extFonts="Permanent Marker^https://fonts.googleapis.com/css?family=Permanent+Marker">
      <root>
        <mxCell id="0" />
        <mxCell id="1" parent="0" />
        <mxCell id="C-vyLk0tnHw3VtMMgP7b-2" value="USERS" style="shape=table;startSize=30;container=1;collapsible=1;childLayout=tableLayout;fixedRows=1;rowLines=0;fontStyle=1;align=center;resizeLast=1;" parent="1" vertex="1">
          <mxGeometry x="30" y="699.5" width="590" height="311" as="geometry" />
        </mxCell>
        <mxCell id="C-vyLk0tnHw3VtMMgP7b-3" value="" style="shape=partialRectangle;collapsible=0;dropTarget=0;pointerEvents=0;fillColor=none;points=[[0,0.5],[1,0.5]];portConstraint=eastwest;top=0;left=0;right=0;bottom=1;" parent="C-vyLk0tnHw3VtMMgP7b-2" vertex="1">
          <mxGeometry y="30" width="590" height="30" as="geometry" />
        </mxCell>
        <mxCell id="C-vyLk0tnHw3VtMMgP7b-4" value="PK" style="shape=partialRectangle;overflow=hidden;connectable=0;fillColor=none;top=0;left=0;bottom=0;right=0;fontStyle=1;" parent="C-vyLk0tnHw3VtMMgP7b-3" vertex="1">
          <mxGeometry width="30" height="30" as="geometry">
            <mxRectangle width="30" height="30" as="alternateBounds" />
          </mxGeometry>
        </mxCell>
        <mxCell id="C-vyLk0tnHw3VtMMgP7b-5" value="user_id INT NOT NULL GENERATED ALWAYS AS IDENTITY (START WITH 1, INCREMENT BY 1), " style="shape=partialRectangle;overflow=hidden;connectable=0;fillColor=none;top=0;left=0;bottom=0;right=0;align=left;spacingLeft=6;fontStyle=5;" parent="C-vyLk0tnHw3VtMMgP7b-3" vertex="1">
          <mxGeometry x="30" width="560" height="30" as="geometry">
            <mxRectangle width="560" height="30" as="alternateBounds" />
          </mxGeometry>
        </mxCell>
        <mxCell id="C-vyLk0tnHw3VtMMgP7b-6" value="" style="shape=partialRectangle;collapsible=0;dropTarget=0;pointerEvents=0;fillColor=none;points=[[0,0.5],[1,0.5]];portConstraint=eastwest;top=0;left=0;right=0;bottom=0;" parent="C-vyLk0tnHw3VtMMgP7b-2" vertex="1">
          <mxGeometry y="60" width="590" height="30" as="geometry" />
        </mxCell>
        <mxCell id="C-vyLk0tnHw3VtMMgP7b-7" value="FK1" style="shape=partialRectangle;overflow=hidden;connectable=0;fillColor=none;top=0;left=0;bottom=0;right=0;" parent="C-vyLk0tnHw3VtMMgP7b-6" vertex="1">
          <mxGeometry width="30" height="30" as="geometry">
            <mxRectangle width="30" height="30" as="alternateBounds" />
          </mxGeometry>
        </mxCell>
        <mxCell id="C-vyLk0tnHw3VtMMgP7b-8" value="first_name VARCHAR(25) NOT NULL," style="shape=partialRectangle;overflow=hidden;connectable=0;fillColor=none;top=0;left=0;bottom=0;right=0;align=left;spacingLeft=6;" parent="C-vyLk0tnHw3VtMMgP7b-6" vertex="1">
          <mxGeometry x="30" width="560" height="30" as="geometry">
            <mxRectangle width="560" height="30" as="alternateBounds" />
          </mxGeometry>
        </mxCell>
        <mxCell id="C-vyLk0tnHw3VtMMgP7b-9" value="" style="shape=partialRectangle;collapsible=0;dropTarget=0;pointerEvents=0;fillColor=none;points=[[0,0.5],[1,0.5]];portConstraint=eastwest;top=0;left=0;right=0;bottom=0;" parent="C-vyLk0tnHw3VtMMgP7b-2" vertex="1">
          <mxGeometry y="90" width="590" height="30" as="geometry" />
        </mxCell>
        <mxCell id="C-vyLk0tnHw3VtMMgP7b-10" value="" style="shape=partialRectangle;overflow=hidden;connectable=0;fillColor=none;top=0;left=0;bottom=0;right=0;" parent="C-vyLk0tnHw3VtMMgP7b-9" vertex="1">
          <mxGeometry width="30" height="30" as="geometry">
            <mxRectangle width="30" height="30" as="alternateBounds" />
          </mxGeometry>
        </mxCell>
        <mxCell id="C-vyLk0tnHw3VtMMgP7b-11" value="last_name VARCHAR(25) NOT NULL," style="shape=partialRectangle;overflow=hidden;connectable=0;fillColor=none;top=0;left=0;bottom=0;right=0;align=left;spacingLeft=6;" parent="C-vyLk0tnHw3VtMMgP7b-9" vertex="1">
          <mxGeometry x="30" width="560" height="30" as="geometry">
            <mxRectangle width="560" height="30" as="alternateBounds" />
          </mxGeometry>
        </mxCell>
        <mxCell id="K4VyJsf5_Tr9AWNzBYGl-149" style="shape=partialRectangle;collapsible=0;dropTarget=0;pointerEvents=0;fillColor=none;points=[[0,0.5],[1,0.5]];portConstraint=eastwest;top=0;left=0;right=0;bottom=0;" parent="C-vyLk0tnHw3VtMMgP7b-2" vertex="1">
          <mxGeometry y="120" width="590" height="31" as="geometry" />
        </mxCell>
        <mxCell id="K4VyJsf5_Tr9AWNzBYGl-150" style="shape=partialRectangle;overflow=hidden;connectable=0;fillColor=none;top=0;left=0;bottom=0;right=0;" parent="K4VyJsf5_Tr9AWNzBYGl-149" vertex="1">
          <mxGeometry width="30" height="31" as="geometry">
            <mxRectangle width="30" height="31" as="alternateBounds" />
          </mxGeometry>
        </mxCell>
        <mxCell id="K4VyJsf5_Tr9AWNzBYGl-151" value="email_address VARCHAR(250) NOT NULL," style="shape=partialRectangle;overflow=hidden;connectable=0;fillColor=none;top=0;left=0;bottom=0;right=0;align=left;spacingLeft=6;" parent="K4VyJsf5_Tr9AWNzBYGl-149" vertex="1">
          <mxGeometry x="30" width="560" height="31" as="geometry">
            <mxRectangle width="560" height="31" as="alternateBounds" />
          </mxGeometry>
        </mxCell>
        <mxCell id="K4VyJsf5_Tr9AWNzBYGl-152" style="shape=partialRectangle;collapsible=0;dropTarget=0;pointerEvents=0;fillColor=none;points=[[0,0.5],[1,0.5]];portConstraint=eastwest;top=0;left=0;right=0;bottom=0;" parent="C-vyLk0tnHw3VtMMgP7b-2" vertex="1">
          <mxGeometry y="151" width="590" height="30" as="geometry" />
        </mxCell>
        <mxCell id="K4VyJsf5_Tr9AWNzBYGl-153" style="shape=partialRectangle;overflow=hidden;connectable=0;fillColor=none;top=0;left=0;bottom=0;right=0;" parent="K4VyJsf5_Tr9AWNzBYGl-152" vertex="1">
          <mxGeometry width="30" height="30" as="geometry">
            <mxRectangle width="30" height="30" as="alternateBounds" />
          </mxGeometry>
        </mxCell>
        <mxCell id="K4VyJsf5_Tr9AWNzBYGl-154" value="password VARCHAR(250) NOT NULL," style="shape=partialRectangle;overflow=hidden;connectable=0;fillColor=none;top=0;left=0;bottom=0;right=0;align=left;spacingLeft=6;" parent="K4VyJsf5_Tr9AWNzBYGl-152" vertex="1">
          <mxGeometry x="30" width="560" height="30" as="geometry">
            <mxRectangle width="560" height="30" as="alternateBounds" />
          </mxGeometry>
        </mxCell>
        <mxCell id="I754h9vJWgT4fxiDuq0E-7" style="shape=partialRectangle;collapsible=0;dropTarget=0;pointerEvents=0;fillColor=none;points=[[0,0.5],[1,0.5]];portConstraint=eastwest;top=0;left=0;right=0;bottom=0;" vertex="1" parent="C-vyLk0tnHw3VtMMgP7b-2">
          <mxGeometry y="181" width="590" height="30" as="geometry" />
        </mxCell>
        <mxCell id="I754h9vJWgT4fxiDuq0E-8" style="shape=partialRectangle;overflow=hidden;connectable=0;fillColor=none;top=0;left=0;bottom=0;right=0;" vertex="1" parent="I754h9vJWgT4fxiDuq0E-7">
          <mxGeometry width="30" height="30" as="geometry">
            <mxRectangle width="30" height="30" as="alternateBounds" />
          </mxGeometry>
        </mxCell>
        <mxCell id="I754h9vJWgT4fxiDuq0E-9" value="admin BOOLEAN NOT NULL," style="shape=partialRectangle;overflow=hidden;connectable=0;fillColor=none;top=0;left=0;bottom=0;right=0;align=left;spacingLeft=6;" vertex="1" parent="I754h9vJWgT4fxiDuq0E-7">
          <mxGeometry x="30" width="560" height="30" as="geometry">
            <mxRectangle width="560" height="30" as="alternateBounds" />
          </mxGeometry>
        </mxCell>
        <mxCell id="K4VyJsf5_Tr9AWNzBYGl-155" style="shape=partialRectangle;collapsible=0;dropTarget=0;pointerEvents=0;fillColor=none;points=[[0,0.5],[1,0.5]];portConstraint=eastwest;top=0;left=0;right=0;bottom=0;" parent="C-vyLk0tnHw3VtMMgP7b-2" vertex="1">
          <mxGeometry y="211" width="590" height="30" as="geometry" />
        </mxCell>
        <mxCell id="K4VyJsf5_Tr9AWNzBYGl-156" style="shape=partialRectangle;overflow=hidden;connectable=0;fillColor=none;top=0;left=0;bottom=0;right=0;" parent="K4VyJsf5_Tr9AWNzBYGl-155" vertex="1">
          <mxGeometry width="30" height="30" as="geometry">
            <mxRectangle width="30" height="30" as="alternateBounds" />
          </mxGeometry>
        </mxCell>
        <mxCell id="K4VyJsf5_Tr9AWNzBYGl-157" value="recent_book_id INT NOT NULL REFERENCES BOOKS(id)," style="shape=partialRectangle;overflow=hidden;connectable=0;fillColor=none;top=0;left=0;bottom=0;right=0;align=left;spacingLeft=6;" parent="K4VyJsf5_Tr9AWNzBYGl-155" vertex="1">
          <mxGeometry x="30" width="560" height="30" as="geometry">
            <mxRectangle width="560" height="30" as="alternateBounds" />
          </mxGeometry>
        </mxCell>
        <mxCell id="K4VyJsf5_Tr9AWNzBYGl-355" style="shape=partialRectangle;collapsible=0;dropTarget=0;pointerEvents=0;fillColor=none;points=[[0,0.5],[1,0.5]];portConstraint=eastwest;top=0;left=0;right=0;bottom=0;" parent="C-vyLk0tnHw3VtMMgP7b-2" vertex="1">
          <mxGeometry y="241" width="590" height="30" as="geometry" />
        </mxCell>
        <mxCell id="K4VyJsf5_Tr9AWNzBYGl-356" style="shape=partialRectangle;overflow=hidden;connectable=0;fillColor=none;top=0;left=0;bottom=0;right=0;" parent="K4VyJsf5_Tr9AWNzBYGl-355" vertex="1">
          <mxGeometry width="30" height="30" as="geometry">
            <mxRectangle width="30" height="30" as="alternateBounds" />
          </mxGeometry>
        </mxCell>
        <mxCell id="K4VyJsf5_Tr9AWNzBYGl-357" value="basket_total DOUBLE NOT NULL," style="shape=partialRectangle;overflow=hidden;connectable=0;fillColor=none;top=0;left=0;bottom=0;right=0;align=left;spacingLeft=6;" parent="K4VyJsf5_Tr9AWNzBYGl-355" vertex="1">
          <mxGeometry x="30" width="560" height="30" as="geometry">
            <mxRectangle width="560" height="30" as="alternateBounds" />
          </mxGeometry>
        </mxCell>
        <mxCell id="I754h9vJWgT4fxiDuq0E-4" style="shape=partialRectangle;collapsible=0;dropTarget=0;pointerEvents=0;fillColor=none;points=[[0,0.5],[1,0.5]];portConstraint=eastwest;top=0;left=0;right=0;bottom=0;" vertex="1" parent="C-vyLk0tnHw3VtMMgP7b-2">
          <mxGeometry y="271" width="590" height="30" as="geometry" />
        </mxCell>
        <mxCell id="I754h9vJWgT4fxiDuq0E-5" style="shape=partialRectangle;overflow=hidden;connectable=0;fillColor=none;top=0;left=0;bottom=0;right=0;" vertex="1" parent="I754h9vJWgT4fxiDuq0E-4">
          <mxGeometry width="30" height="30" as="geometry">
            <mxRectangle width="30" height="30" as="alternateBounds" />
          </mxGeometry>
        </mxCell>
        <mxCell id="I754h9vJWgT4fxiDuq0E-6" value="login_date TIMESTAMP NOT NULL" style="shape=partialRectangle;overflow=hidden;connectable=0;fillColor=none;top=0;left=0;bottom=0;right=0;align=left;spacingLeft=6;" vertex="1" parent="I754h9vJWgT4fxiDuq0E-4">
          <mxGeometry x="30" width="560" height="30" as="geometry">
            <mxRectangle width="560" height="30" as="alternateBounds" />
          </mxGeometry>
        </mxCell>
        <mxCell id="C-vyLk0tnHw3VtMMgP7b-13" value="CARDS" style="shape=table;startSize=30;container=1;collapsible=1;childLayout=tableLayout;fixedRows=1;rowLines=0;fontStyle=1;align=center;resizeLast=1;" parent="1" vertex="1">
          <mxGeometry x="385" y="40" width="590" height="220" as="geometry" />
        </mxCell>
        <mxCell id="C-vyLk0tnHw3VtMMgP7b-14" value="" style="shape=partialRectangle;collapsible=0;dropTarget=0;pointerEvents=0;fillColor=none;points=[[0,0.5],[1,0.5]];portConstraint=eastwest;top=0;left=0;right=0;bottom=1;" parent="C-vyLk0tnHw3VtMMgP7b-13" vertex="1">
          <mxGeometry y="30" width="590" height="30" as="geometry" />
        </mxCell>
        <mxCell id="C-vyLk0tnHw3VtMMgP7b-15" value="PK" style="shape=partialRectangle;overflow=hidden;connectable=0;fillColor=none;top=0;left=0;bottom=0;right=0;fontStyle=1;" parent="C-vyLk0tnHw3VtMMgP7b-14" vertex="1">
          <mxGeometry width="30" height="30" as="geometry">
            <mxRectangle width="30" height="30" as="alternateBounds" />
          </mxGeometry>
        </mxCell>
        <mxCell id="C-vyLk0tnHw3VtMMgP7b-16" value="card_id INT NOT NULL GENERATED ALWAYS AS IDENTITY (START WITH 1, INCREMENT BY 1), " style="shape=partialRectangle;overflow=hidden;connectable=0;fillColor=none;top=0;left=0;bottom=0;right=0;align=left;spacingLeft=6;fontStyle=5;" parent="C-vyLk0tnHw3VtMMgP7b-14" vertex="1">
          <mxGeometry x="30" width="560" height="30" as="geometry">
            <mxRectangle width="560" height="30" as="alternateBounds" />
          </mxGeometry>
        </mxCell>
        <mxCell id="C-vyLk0tnHw3VtMMgP7b-17" value="" style="shape=partialRectangle;collapsible=0;dropTarget=0;pointerEvents=0;fillColor=none;points=[[0,0.5],[1,0.5]];portConstraint=eastwest;top=0;left=0;right=0;bottom=0;" parent="C-vyLk0tnHw3VtMMgP7b-13" vertex="1">
          <mxGeometry y="60" width="590" height="30" as="geometry" />
        </mxCell>
        <mxCell id="C-vyLk0tnHw3VtMMgP7b-18" value="FK1" style="shape=partialRectangle;overflow=hidden;connectable=0;fillColor=none;top=0;left=0;bottom=0;right=0;" parent="C-vyLk0tnHw3VtMMgP7b-17" vertex="1">
          <mxGeometry width="30" height="30" as="geometry">
            <mxRectangle width="30" height="30" as="alternateBounds" />
          </mxGeometry>
        </mxCell>
        <mxCell id="C-vyLk0tnHw3VtMMgP7b-19" value="user_id INT NOT NULL REFERENCES USERS(id)," style="shape=partialRectangle;overflow=hidden;connectable=0;fillColor=none;top=0;left=0;bottom=0;right=0;align=left;spacingLeft=6;" parent="C-vyLk0tnHw3VtMMgP7b-17" vertex="1">
          <mxGeometry x="30" width="560" height="30" as="geometry">
            <mxRectangle width="560" height="30" as="alternateBounds" />
          </mxGeometry>
        </mxCell>
        <mxCell id="C-vyLk0tnHw3VtMMgP7b-20" value="" style="shape=partialRectangle;collapsible=0;dropTarget=0;pointerEvents=0;fillColor=none;points=[[0,0.5],[1,0.5]];portConstraint=eastwest;top=0;left=0;right=0;bottom=0;" parent="C-vyLk0tnHw3VtMMgP7b-13" vertex="1">
          <mxGeometry y="90" width="590" height="30" as="geometry" />
        </mxCell>
        <mxCell id="C-vyLk0tnHw3VtMMgP7b-21" value="" style="shape=partialRectangle;overflow=hidden;connectable=0;fillColor=none;top=0;left=0;bottom=0;right=0;" parent="C-vyLk0tnHw3VtMMgP7b-20" vertex="1">
          <mxGeometry width="30" height="30" as="geometry">
            <mxRectangle width="30" height="30" as="alternateBounds" />
          </mxGeometry>
        </mxCell>
        <mxCell id="C-vyLk0tnHw3VtMMgP7b-22" value="name VARCHAR(250) NOT NULL," style="shape=partialRectangle;overflow=hidden;connectable=0;fillColor=none;top=0;left=0;bottom=0;right=0;align=left;spacingLeft=6;" parent="C-vyLk0tnHw3VtMMgP7b-20" vertex="1">
          <mxGeometry x="30" width="560" height="30" as="geometry">
            <mxRectangle width="560" height="30" as="alternateBounds" />
          </mxGeometry>
        </mxCell>
        <mxCell id="K4VyJsf5_Tr9AWNzBYGl-167" style="shape=partialRectangle;collapsible=0;dropTarget=0;pointerEvents=0;fillColor=none;points=[[0,0.5],[1,0.5]];portConstraint=eastwest;top=0;left=0;right=0;bottom=0;" parent="C-vyLk0tnHw3VtMMgP7b-13" vertex="1">
          <mxGeometry y="120" width="590" height="30" as="geometry" />
        </mxCell>
        <mxCell id="K4VyJsf5_Tr9AWNzBYGl-168" style="shape=partialRectangle;overflow=hidden;connectable=0;fillColor=none;top=0;left=0;bottom=0;right=0;" parent="K4VyJsf5_Tr9AWNzBYGl-167" vertex="1">
          <mxGeometry width="30" height="30" as="geometry">
            <mxRectangle width="30" height="30" as="alternateBounds" />
          </mxGeometry>
        </mxCell>
        <mxCell id="K4VyJsf5_Tr9AWNzBYGl-169" value="expiration_month INT NOT NULL," style="shape=partialRectangle;overflow=hidden;connectable=0;fillColor=none;top=0;left=0;bottom=0;right=0;align=left;spacingLeft=6;" parent="K4VyJsf5_Tr9AWNzBYGl-167" vertex="1">
          <mxGeometry x="30" width="560" height="30" as="geometry">
            <mxRectangle width="560" height="30" as="alternateBounds" />
          </mxGeometry>
        </mxCell>
        <mxCell id="K4VyJsf5_Tr9AWNzBYGl-164" style="shape=partialRectangle;collapsible=0;dropTarget=0;pointerEvents=0;fillColor=none;points=[[0,0.5],[1,0.5]];portConstraint=eastwest;top=0;left=0;right=0;bottom=0;" parent="C-vyLk0tnHw3VtMMgP7b-13" vertex="1">
          <mxGeometry y="150" width="590" height="30" as="geometry" />
        </mxCell>
        <mxCell id="K4VyJsf5_Tr9AWNzBYGl-165" style="shape=partialRectangle;overflow=hidden;connectable=0;fillColor=none;top=0;left=0;bottom=0;right=0;" parent="K4VyJsf5_Tr9AWNzBYGl-164" vertex="1">
          <mxGeometry width="30" height="30" as="geometry">
            <mxRectangle width="30" height="30" as="alternateBounds" />
          </mxGeometry>
        </mxCell>
        <mxCell id="K4VyJsf5_Tr9AWNzBYGl-166" value="expiration_year INT NOT NULL," style="shape=partialRectangle;overflow=hidden;connectable=0;fillColor=none;top=0;left=0;bottom=0;right=0;align=left;spacingLeft=6;" parent="K4VyJsf5_Tr9AWNzBYGl-164" vertex="1">
          <mxGeometry x="30" width="560" height="30" as="geometry">
            <mxRectangle width="560" height="30" as="alternateBounds" />
          </mxGeometry>
        </mxCell>
        <mxCell id="K4VyJsf5_Tr9AWNzBYGl-161" style="shape=partialRectangle;collapsible=0;dropTarget=0;pointerEvents=0;fillColor=none;points=[[0,0.5],[1,0.5]];portConstraint=eastwest;top=0;left=0;right=0;bottom=0;" parent="C-vyLk0tnHw3VtMMgP7b-13" vertex="1">
          <mxGeometry y="180" width="590" height="30" as="geometry" />
        </mxCell>
        <mxCell id="K4VyJsf5_Tr9AWNzBYGl-162" style="shape=partialRectangle;overflow=hidden;connectable=0;fillColor=none;top=0;left=0;bottom=0;right=0;" parent="K4VyJsf5_Tr9AWNzBYGl-161" vertex="1">
          <mxGeometry width="30" height="30" as="geometry">
            <mxRectangle width="30" height="30" as="alternateBounds" />
          </mxGeometry>
        </mxCell>
        <mxCell id="K4VyJsf5_Tr9AWNzBYGl-163" value="number VARCHAR(45) NOT NULL," style="shape=partialRectangle;overflow=hidden;connectable=0;fillColor=none;top=0;left=0;bottom=0;right=0;align=left;spacingLeft=6;" parent="K4VyJsf5_Tr9AWNzBYGl-161" vertex="1">
          <mxGeometry x="30" width="560" height="30" as="geometry">
            <mxRectangle width="560" height="30" as="alternateBounds" />
          </mxGeometry>
        </mxCell>
        <mxCell id="C-vyLk0tnHw3VtMMgP7b-23" value="BOOKS" style="shape=table;startSize=30;container=1;collapsible=1;childLayout=tableLayout;fixedRows=1;rowLines=0;fontStyle=1;align=center;resizeLast=1;" parent="1" vertex="1">
          <mxGeometry x="84" y="1380" width="590" height="210" as="geometry" />
        </mxCell>
        <mxCell id="C-vyLk0tnHw3VtMMgP7b-24" value="" style="shape=partialRectangle;collapsible=0;dropTarget=0;pointerEvents=0;fillColor=none;points=[[0,0.5],[1,0.5]];portConstraint=eastwest;top=0;left=0;right=0;bottom=1;" parent="C-vyLk0tnHw3VtMMgP7b-23" vertex="1">
          <mxGeometry y="30" width="590" height="30" as="geometry" />
        </mxCell>
        <mxCell id="C-vyLk0tnHw3VtMMgP7b-25" value="PK" style="shape=partialRectangle;overflow=hidden;connectable=0;fillColor=none;top=0;left=0;bottom=0;right=0;fontStyle=1;" parent="C-vyLk0tnHw3VtMMgP7b-24" vertex="1">
          <mxGeometry width="30" height="30" as="geometry">
            <mxRectangle width="30" height="30" as="alternateBounds" />
          </mxGeometry>
        </mxCell>
        <mxCell id="C-vyLk0tnHw3VtMMgP7b-26" value="book_id INT NOT NULL GENERATED ALWAYS AS IDENTITY (START WITH 1, INCREMENT BY 1), " style="shape=partialRectangle;overflow=hidden;connectable=0;fillColor=none;top=0;left=0;bottom=0;right=0;align=left;spacingLeft=6;fontStyle=5;" parent="C-vyLk0tnHw3VtMMgP7b-24" vertex="1">
          <mxGeometry x="30" width="560" height="30" as="geometry">
            <mxRectangle width="560" height="30" as="alternateBounds" />
          </mxGeometry>
        </mxCell>
        <mxCell id="C-vyLk0tnHw3VtMMgP7b-27" value="" style="shape=partialRectangle;collapsible=0;dropTarget=0;pointerEvents=0;fillColor=none;points=[[0,0.5],[1,0.5]];portConstraint=eastwest;top=0;left=0;right=0;bottom=0;" parent="C-vyLk0tnHw3VtMMgP7b-23" vertex="1">
          <mxGeometry y="60" width="590" height="30" as="geometry" />
        </mxCell>
        <mxCell id="C-vyLk0tnHw3VtMMgP7b-28" value="" style="shape=partialRectangle;overflow=hidden;connectable=0;fillColor=none;top=0;left=0;bottom=0;right=0;" parent="C-vyLk0tnHw3VtMMgP7b-27" vertex="1">
          <mxGeometry width="30" height="30" as="geometry">
            <mxRectangle width="30" height="30" as="alternateBounds" />
          </mxGeometry>
        </mxCell>
        <mxCell id="C-vyLk0tnHw3VtMMgP7b-29" value="title VARCHAR(250) NOT NULL," style="shape=partialRectangle;overflow=hidden;connectable=0;fillColor=none;top=0;left=0;bottom=0;right=0;align=left;spacingLeft=6;" parent="C-vyLk0tnHw3VtMMgP7b-27" vertex="1">
          <mxGeometry x="30" width="560" height="30" as="geometry">
            <mxRectangle width="560" height="30" as="alternateBounds" />
          </mxGeometry>
        </mxCell>
        <mxCell id="K4VyJsf5_Tr9AWNzBYGl-1" value="ADDRESSES" style="shape=table;startSize=30;container=1;collapsible=1;childLayout=tableLayout;fixedRows=1;rowLines=0;fontStyle=1;align=center;resizeLast=1;" parent="1" vertex="1">
          <mxGeometry x="385" y="290" width="610" height="250" as="geometry" />
        </mxCell>
        <mxCell id="K4VyJsf5_Tr9AWNzBYGl-2" value="" style="shape=partialRectangle;collapsible=0;dropTarget=0;pointerEvents=0;fillColor=none;points=[[0,0.5],[1,0.5]];portConstraint=eastwest;top=0;left=0;right=0;bottom=1;" parent="K4VyJsf5_Tr9AWNzBYGl-1" vertex="1">
          <mxGeometry y="30" width="610" height="30" as="geometry" />
        </mxCell>
        <mxCell id="K4VyJsf5_Tr9AWNzBYGl-3" value="PK" style="shape=partialRectangle;overflow=hidden;connectable=0;fillColor=none;top=0;left=0;bottom=0;right=0;fontStyle=1;" parent="K4VyJsf5_Tr9AWNzBYGl-2" vertex="1">
          <mxGeometry width="30" height="30" as="geometry">
            <mxRectangle width="30" height="30" as="alternateBounds" />
          </mxGeometry>
        </mxCell>
        <mxCell id="K4VyJsf5_Tr9AWNzBYGl-4" value="address_id INT NOT NULL GENERATED ALWAYS AS IDENTITY (START WITH 1, INCREMENT BY 1), " style="shape=partialRectangle;overflow=hidden;connectable=0;fillColor=none;top=0;left=0;bottom=0;right=0;align=left;spacingLeft=6;fontStyle=5;" parent="K4VyJsf5_Tr9AWNzBYGl-2" vertex="1">
          <mxGeometry x="30" width="580" height="30" as="geometry">
            <mxRectangle width="580" height="30" as="alternateBounds" />
          </mxGeometry>
        </mxCell>
        <mxCell id="K4VyJsf5_Tr9AWNzBYGl-5" value="" style="shape=partialRectangle;collapsible=0;dropTarget=0;pointerEvents=0;fillColor=none;points=[[0,0.5],[1,0.5]];portConstraint=eastwest;top=0;left=0;right=0;bottom=0;" parent="K4VyJsf5_Tr9AWNzBYGl-1" vertex="1">
          <mxGeometry y="60" width="610" height="30" as="geometry" />
        </mxCell>
        <mxCell id="K4VyJsf5_Tr9AWNzBYGl-6" value="FK1" style="shape=partialRectangle;overflow=hidden;connectable=0;fillColor=none;top=0;left=0;bottom=0;right=0;" parent="K4VyJsf5_Tr9AWNzBYGl-5" vertex="1">
          <mxGeometry width="30" height="30" as="geometry">
            <mxRectangle width="30" height="30" as="alternateBounds" />
          </mxGeometry>
        </mxCell>
        <mxCell id="K4VyJsf5_Tr9AWNzBYGl-7" value="user_id INT REFERENCES USERS(id)," style="shape=partialRectangle;overflow=hidden;connectable=0;fillColor=none;top=0;left=0;bottom=0;right=0;align=left;spacingLeft=6;" parent="K4VyJsf5_Tr9AWNzBYGl-5" vertex="1">
          <mxGeometry x="30" width="580" height="30" as="geometry">
            <mxRectangle width="580" height="30" as="alternateBounds" />
          </mxGeometry>
        </mxCell>
        <mxCell id="K4VyJsf5_Tr9AWNzBYGl-8" value="" style="shape=partialRectangle;collapsible=0;dropTarget=0;pointerEvents=0;fillColor=none;points=[[0,0.5],[1,0.5]];portConstraint=eastwest;top=0;left=0;right=0;bottom=0;" parent="K4VyJsf5_Tr9AWNzBYGl-1" vertex="1">
          <mxGeometry y="90" width="610" height="30" as="geometry" />
        </mxCell>
        <mxCell id="K4VyJsf5_Tr9AWNzBYGl-9" value="" style="shape=partialRectangle;overflow=hidden;connectable=0;fillColor=none;top=0;left=0;bottom=0;right=0;" parent="K4VyJsf5_Tr9AWNzBYGl-8" vertex="1">
          <mxGeometry width="30" height="30" as="geometry">
            <mxRectangle width="30" height="30" as="alternateBounds" />
          </mxGeometry>
        </mxCell>
        <mxCell id="K4VyJsf5_Tr9AWNzBYGl-10" value="street VARCHAR(250) NOT NULL," style="shape=partialRectangle;overflow=hidden;connectable=0;fillColor=none;top=0;left=0;bottom=0;right=0;align=left;spacingLeft=6;" parent="K4VyJsf5_Tr9AWNzBYGl-8" vertex="1">
          <mxGeometry x="30" width="580" height="30" as="geometry">
            <mxRectangle width="580" height="30" as="alternateBounds" />
          </mxGeometry>
        </mxCell>
        <mxCell id="K4VyJsf5_Tr9AWNzBYGl-181" style="shape=partialRectangle;collapsible=0;dropTarget=0;pointerEvents=0;fillColor=none;points=[[0,0.5],[1,0.5]];portConstraint=eastwest;top=0;left=0;right=0;bottom=0;" parent="K4VyJsf5_Tr9AWNzBYGl-1" vertex="1">
          <mxGeometry y="120" width="610" height="30" as="geometry" />
        </mxCell>
        <mxCell id="K4VyJsf5_Tr9AWNzBYGl-182" style="shape=partialRectangle;overflow=hidden;connectable=0;fillColor=none;top=0;left=0;bottom=0;right=0;" parent="K4VyJsf5_Tr9AWNzBYGl-181" vertex="1">
          <mxGeometry width="30" height="30" as="geometry">
            <mxRectangle width="30" height="30" as="alternateBounds" />
          </mxGeometry>
        </mxCell>
        <mxCell id="K4VyJsf5_Tr9AWNzBYGl-183" value="city VARCHAR(250) NOT NULL," style="shape=partialRectangle;overflow=hidden;connectable=0;fillColor=none;top=0;left=0;bottom=0;right=0;align=left;spacingLeft=6;" parent="K4VyJsf5_Tr9AWNzBYGl-181" vertex="1">
          <mxGeometry x="30" width="580" height="30" as="geometry">
            <mxRectangle width="580" height="30" as="alternateBounds" />
          </mxGeometry>
        </mxCell>
        <mxCell id="K4VyJsf5_Tr9AWNzBYGl-178" style="shape=partialRectangle;collapsible=0;dropTarget=0;pointerEvents=0;fillColor=none;points=[[0,0.5],[1,0.5]];portConstraint=eastwest;top=0;left=0;right=0;bottom=0;" parent="K4VyJsf5_Tr9AWNzBYGl-1" vertex="1">
          <mxGeometry y="150" width="610" height="30" as="geometry" />
        </mxCell>
        <mxCell id="K4VyJsf5_Tr9AWNzBYGl-179" style="shape=partialRectangle;overflow=hidden;connectable=0;fillColor=none;top=0;left=0;bottom=0;right=0;" parent="K4VyJsf5_Tr9AWNzBYGl-178" vertex="1">
          <mxGeometry width="30" height="30" as="geometry">
            <mxRectangle width="30" height="30" as="alternateBounds" />
          </mxGeometry>
        </mxCell>
        <mxCell id="K4VyJsf5_Tr9AWNzBYGl-180" value="state VARCHAR(250) NOT NULL," style="shape=partialRectangle;overflow=hidden;connectable=0;fillColor=none;top=0;left=0;bottom=0;right=0;align=left;spacingLeft=6;" parent="K4VyJsf5_Tr9AWNzBYGl-178" vertex="1">
          <mxGeometry x="30" width="580" height="30" as="geometry">
            <mxRectangle width="580" height="30" as="alternateBounds" />
          </mxGeometry>
        </mxCell>
        <mxCell id="K4VyJsf5_Tr9AWNzBYGl-175" style="shape=partialRectangle;collapsible=0;dropTarget=0;pointerEvents=0;fillColor=none;points=[[0,0.5],[1,0.5]];portConstraint=eastwest;top=0;left=0;right=0;bottom=0;" parent="K4VyJsf5_Tr9AWNzBYGl-1" vertex="1">
          <mxGeometry y="180" width="610" height="30" as="geometry" />
        </mxCell>
        <mxCell id="K4VyJsf5_Tr9AWNzBYGl-176" style="shape=partialRectangle;overflow=hidden;connectable=0;fillColor=none;top=0;left=0;bottom=0;right=0;" parent="K4VyJsf5_Tr9AWNzBYGl-175" vertex="1">
          <mxGeometry width="30" height="30" as="geometry">
            <mxRectangle width="30" height="30" as="alternateBounds" />
          </mxGeometry>
        </mxCell>
        <mxCell id="K4VyJsf5_Tr9AWNzBYGl-177" value="postcode VARCHAR(250) NOT NULL," style="shape=partialRectangle;overflow=hidden;connectable=0;fillColor=none;top=0;left=0;bottom=0;right=0;align=left;spacingLeft=6;" parent="K4VyJsf5_Tr9AWNzBYGl-175" vertex="1">
          <mxGeometry x="30" width="580" height="30" as="geometry">
            <mxRectangle width="580" height="30" as="alternateBounds" />
          </mxGeometry>
        </mxCell>
        <mxCell id="K4VyJsf5_Tr9AWNzBYGl-172" style="shape=partialRectangle;collapsible=0;dropTarget=0;pointerEvents=0;fillColor=none;points=[[0,0.5],[1,0.5]];portConstraint=eastwest;top=0;left=0;right=0;bottom=0;" parent="K4VyJsf5_Tr9AWNzBYGl-1" vertex="1">
          <mxGeometry y="210" width="610" height="30" as="geometry" />
        </mxCell>
        <mxCell id="K4VyJsf5_Tr9AWNzBYGl-173" style="shape=partialRectangle;overflow=hidden;connectable=0;fillColor=none;top=0;left=0;bottom=0;right=0;" parent="K4VyJsf5_Tr9AWNzBYGl-172" vertex="1">
          <mxGeometry width="30" height="30" as="geometry">
            <mxRectangle width="30" height="30" as="alternateBounds" />
          </mxGeometry>
        </mxCell>
        <mxCell id="K4VyJsf5_Tr9AWNzBYGl-174" value="country VARCHAR(250) NOT NULL," style="shape=partialRectangle;overflow=hidden;connectable=0;fillColor=none;top=0;left=0;bottom=0;right=0;align=left;spacingLeft=6;" parent="K4VyJsf5_Tr9AWNzBYGl-172" vertex="1">
          <mxGeometry x="30" width="580" height="30" as="geometry">
            <mxRectangle width="580" height="30" as="alternateBounds" />
          </mxGeometry>
        </mxCell>
        <mxCell id="K4VyJsf5_Tr9AWNzBYGl-11" value="ORDERS" style="shape=table;startSize=30;container=1;collapsible=1;childLayout=tableLayout;fixedRows=1;rowLines=0;fontStyle=1;align=center;resizeLast=1;" parent="1" vertex="1">
          <mxGeometry x="675" y="670" width="600" height="340" as="geometry" />
        </mxCell>
        <mxCell id="K4VyJsf5_Tr9AWNzBYGl-12" value="" style="shape=partialRectangle;collapsible=0;dropTarget=0;pointerEvents=0;fillColor=none;points=[[0,0.5],[1,0.5]];portConstraint=eastwest;top=0;left=0;right=0;bottom=1;" parent="K4VyJsf5_Tr9AWNzBYGl-11" vertex="1">
          <mxGeometry y="30" width="600" height="30" as="geometry" />
        </mxCell>
        <mxCell id="K4VyJsf5_Tr9AWNzBYGl-13" value="PK" style="shape=partialRectangle;overflow=hidden;connectable=0;fillColor=none;top=0;left=0;bottom=0;right=0;fontStyle=1;" parent="K4VyJsf5_Tr9AWNzBYGl-12" vertex="1">
          <mxGeometry width="30" height="30" as="geometry">
            <mxRectangle width="30" height="30" as="alternateBounds" />
          </mxGeometry>
        </mxCell>
        <mxCell id="K4VyJsf5_Tr9AWNzBYGl-14" value="order_id INT NOT NULL GENERATED ALWAYS AS IDENTITY (START WITH 1, INCREMENT BY 1), " style="shape=partialRectangle;overflow=hidden;connectable=0;fillColor=none;top=0;left=0;bottom=0;right=0;align=left;spacingLeft=6;fontStyle=5;" parent="K4VyJsf5_Tr9AWNzBYGl-12" vertex="1">
          <mxGeometry x="30" width="570" height="30" as="geometry">
            <mxRectangle width="570" height="30" as="alternateBounds" />
          </mxGeometry>
        </mxCell>
        <mxCell id="K4VyJsf5_Tr9AWNzBYGl-15" value="" style="shape=partialRectangle;collapsible=0;dropTarget=0;pointerEvents=0;fillColor=none;points=[[0,0.5],[1,0.5]];portConstraint=eastwest;top=0;left=0;right=0;bottom=0;" parent="K4VyJsf5_Tr9AWNzBYGl-11" vertex="1">
          <mxGeometry y="60" width="600" height="30" as="geometry" />
        </mxCell>
        <mxCell id="K4VyJsf5_Tr9AWNzBYGl-16" value="FK1" style="shape=partialRectangle;overflow=hidden;connectable=0;fillColor=none;top=0;left=0;bottom=0;right=0;" parent="K4VyJsf5_Tr9AWNzBYGl-15" vertex="1">
          <mxGeometry width="30" height="30" as="geometry">
            <mxRectangle width="30" height="30" as="alternateBounds" />
          </mxGeometry>
        </mxCell>
        <mxCell id="K4VyJsf5_Tr9AWNzBYGl-17" value="total DOUBLE NOT NULL," style="shape=partialRectangle;overflow=hidden;connectable=0;fillColor=none;top=0;left=0;bottom=0;right=0;align=left;spacingLeft=6;" parent="K4VyJsf5_Tr9AWNzBYGl-15" vertex="1">
          <mxGeometry x="30" width="570" height="30" as="geometry">
            <mxRectangle width="570" height="30" as="alternateBounds" />
          </mxGeometry>
        </mxCell>
        <mxCell id="K4VyJsf5_Tr9AWNzBYGl-18" value="" style="shape=partialRectangle;collapsible=0;dropTarget=0;pointerEvents=0;fillColor=none;points=[[0,0.5],[1,0.5]];portConstraint=eastwest;top=0;left=0;right=0;bottom=0;" parent="K4VyJsf5_Tr9AWNzBYGl-11" vertex="1">
          <mxGeometry y="90" width="600" height="30" as="geometry" />
        </mxCell>
        <mxCell id="K4VyJsf5_Tr9AWNzBYGl-19" value="" style="shape=partialRectangle;overflow=hidden;connectable=0;fillColor=none;top=0;left=0;bottom=0;right=0;" parent="K4VyJsf5_Tr9AWNzBYGl-18" vertex="1">
          <mxGeometry width="30" height="30" as="geometry">
            <mxRectangle width="30" height="30" as="alternateBounds" />
          </mxGeometry>
        </mxCell>
        <mxCell id="K4VyJsf5_Tr9AWNzBYGl-20" value="status VARCHAR(250) NOT NULL," style="shape=partialRectangle;overflow=hidden;connectable=0;fillColor=none;top=0;left=0;bottom=0;right=0;align=left;spacingLeft=6;" parent="K4VyJsf5_Tr9AWNzBYGl-18" vertex="1">
          <mxGeometry x="30" width="570" height="30" as="geometry">
            <mxRectangle width="570" height="30" as="alternateBounds" />
          </mxGeometry>
        </mxCell>
        <mxCell id="K4VyJsf5_Tr9AWNzBYGl-203" style="shape=partialRectangle;collapsible=0;dropTarget=0;pointerEvents=0;fillColor=none;points=[[0,0.5],[1,0.5]];portConstraint=eastwest;top=0;left=0;right=0;bottom=0;" parent="K4VyJsf5_Tr9AWNzBYGl-11" vertex="1">
          <mxGeometry y="120" width="600" height="30" as="geometry" />
        </mxCell>
        <mxCell id="K4VyJsf5_Tr9AWNzBYGl-204" style="shape=partialRectangle;overflow=hidden;connectable=0;fillColor=none;top=0;left=0;bottom=0;right=0;" parent="K4VyJsf5_Tr9AWNzBYGl-203" vertex="1">
          <mxGeometry width="30" height="30" as="geometry">
            <mxRectangle width="30" height="30" as="alternateBounds" />
          </mxGeometry>
        </mxCell>
        <mxCell id="K4VyJsf5_Tr9AWNzBYGl-205" value="user_id INT NOT NULL REFERENCES USERS(id)," style="shape=partialRectangle;overflow=hidden;connectable=0;fillColor=none;top=0;left=0;bottom=0;right=0;align=left;spacingLeft=6;" parent="K4VyJsf5_Tr9AWNzBYGl-203" vertex="1">
          <mxGeometry x="30" width="570" height="30" as="geometry">
            <mxRectangle width="570" height="30" as="alternateBounds" />
          </mxGeometry>
        </mxCell>
        <mxCell id="K4VyJsf5_Tr9AWNzBYGl-197" style="shape=partialRectangle;collapsible=0;dropTarget=0;pointerEvents=0;fillColor=none;points=[[0,0.5],[1,0.5]];portConstraint=eastwest;top=0;left=0;right=0;bottom=0;" parent="K4VyJsf5_Tr9AWNzBYGl-11" vertex="1">
          <mxGeometry y="150" width="600" height="30" as="geometry" />
        </mxCell>
        <mxCell id="K4VyJsf5_Tr9AWNzBYGl-198" style="shape=partialRectangle;overflow=hidden;connectable=0;fillColor=none;top=0;left=0;bottom=0;right=0;" parent="K4VyJsf5_Tr9AWNzBYGl-197" vertex="1">
          <mxGeometry width="30" height="30" as="geometry">
            <mxRectangle width="30" height="30" as="alternateBounds" />
          </mxGeometry>
        </mxCell>
        <mxCell id="K4VyJsf5_Tr9AWNzBYGl-199" value="card_id INT NOT NULL REFERENCES CARDS(id)," style="shape=partialRectangle;overflow=hidden;connectable=0;fillColor=none;top=0;left=0;bottom=0;right=0;align=left;spacingLeft=6;" parent="K4VyJsf5_Tr9AWNzBYGl-197" vertex="1">
          <mxGeometry x="30" width="570" height="30" as="geometry">
            <mxRectangle width="570" height="30" as="alternateBounds" />
          </mxGeometry>
        </mxCell>
        <mxCell id="K4VyJsf5_Tr9AWNzBYGl-194" style="shape=partialRectangle;collapsible=0;dropTarget=0;pointerEvents=0;fillColor=none;points=[[0,0.5],[1,0.5]];portConstraint=eastwest;top=0;left=0;right=0;bottom=0;" parent="K4VyJsf5_Tr9AWNzBYGl-11" vertex="1">
          <mxGeometry y="180" width="600" height="30" as="geometry" />
        </mxCell>
        <mxCell id="K4VyJsf5_Tr9AWNzBYGl-195" style="shape=partialRectangle;overflow=hidden;connectable=0;fillColor=none;top=0;left=0;bottom=0;right=0;" parent="K4VyJsf5_Tr9AWNzBYGl-194" vertex="1">
          <mxGeometry width="30" height="30" as="geometry">
            <mxRectangle width="30" height="30" as="alternateBounds" />
          </mxGeometry>
        </mxCell>
        <mxCell id="K4VyJsf5_Tr9AWNzBYGl-196" value="address_id INT NOT NULL REFERENCES ADDRESSES(id)," style="shape=partialRectangle;overflow=hidden;connectable=0;fillColor=none;top=0;left=0;bottom=0;right=0;align=left;spacingLeft=6;" parent="K4VyJsf5_Tr9AWNzBYGl-194" vertex="1">
          <mxGeometry x="30" width="570" height="30" as="geometry">
            <mxRectangle width="570" height="30" as="alternateBounds" />
          </mxGeometry>
        </mxCell>
        <mxCell id="K4VyJsf5_Tr9AWNzBYGl-191" style="shape=partialRectangle;collapsible=0;dropTarget=0;pointerEvents=0;fillColor=none;points=[[0,0.5],[1,0.5]];portConstraint=eastwest;top=0;left=0;right=0;bottom=0;" parent="K4VyJsf5_Tr9AWNzBYGl-11" vertex="1">
          <mxGeometry y="210" width="600" height="30" as="geometry" />
        </mxCell>
        <mxCell id="K4VyJsf5_Tr9AWNzBYGl-192" style="shape=partialRectangle;overflow=hidden;connectable=0;fillColor=none;top=0;left=0;bottom=0;right=0;" parent="K4VyJsf5_Tr9AWNzBYGl-191" vertex="1">
          <mxGeometry width="30" height="30" as="geometry">
            <mxRectangle width="30" height="30" as="alternateBounds" />
          </mxGeometry>
        </mxCell>
        <mxCell id="K4VyJsf5_Tr9AWNzBYGl-193" value="ordered TIMESTAMP NOT NULL," style="shape=partialRectangle;overflow=hidden;connectable=0;fillColor=none;top=0;left=0;bottom=0;right=0;align=left;spacingLeft=6;" parent="K4VyJsf5_Tr9AWNzBYGl-191" vertex="1">
          <mxGeometry x="30" width="570" height="30" as="geometry">
            <mxRectangle width="570" height="30" as="alternateBounds" />
          </mxGeometry>
        </mxCell>
        <mxCell id="K4VyJsf5_Tr9AWNzBYGl-188" style="shape=partialRectangle;collapsible=0;dropTarget=0;pointerEvents=0;fillColor=none;points=[[0,0.5],[1,0.5]];portConstraint=eastwest;top=0;left=0;right=0;bottom=0;" parent="K4VyJsf5_Tr9AWNzBYGl-11" vertex="1">
          <mxGeometry y="240" width="600" height="30" as="geometry" />
        </mxCell>
        <mxCell id="K4VyJsf5_Tr9AWNzBYGl-189" style="shape=partialRectangle;overflow=hidden;connectable=0;fillColor=none;top=0;left=0;bottom=0;right=0;" parent="K4VyJsf5_Tr9AWNzBYGl-188" vertex="1">
          <mxGeometry width="30" height="30" as="geometry">
            <mxRectangle width="30" height="30" as="alternateBounds" />
          </mxGeometry>
        </mxCell>
        <mxCell id="K4VyJsf5_Tr9AWNzBYGl-190" value="out_for_delivery TIMESTAMP," style="shape=partialRectangle;overflow=hidden;connectable=0;fillColor=none;top=0;left=0;bottom=0;right=0;align=left;spacingLeft=6;" parent="K4VyJsf5_Tr9AWNzBYGl-188" vertex="1">
          <mxGeometry x="30" width="570" height="30" as="geometry">
            <mxRectangle width="570" height="30" as="alternateBounds" />
          </mxGeometry>
        </mxCell>
        <mxCell id="K4VyJsf5_Tr9AWNzBYGl-185" style="shape=partialRectangle;collapsible=0;dropTarget=0;pointerEvents=0;fillColor=none;points=[[0,0.5],[1,0.5]];portConstraint=eastwest;top=0;left=0;right=0;bottom=0;" parent="K4VyJsf5_Tr9AWNzBYGl-11" vertex="1">
          <mxGeometry y="270" width="600" height="30" as="geometry" />
        </mxCell>
        <mxCell id="K4VyJsf5_Tr9AWNzBYGl-186" style="shape=partialRectangle;overflow=hidden;connectable=0;fillColor=none;top=0;left=0;bottom=0;right=0;" parent="K4VyJsf5_Tr9AWNzBYGl-185" vertex="1">
          <mxGeometry width="30" height="30" as="geometry">
            <mxRectangle width="30" height="30" as="alternateBounds" />
          </mxGeometry>
        </mxCell>
        <mxCell id="K4VyJsf5_Tr9AWNzBYGl-187" value="delivered TIMESTAMP," style="shape=partialRectangle;overflow=hidden;connectable=0;fillColor=none;top=0;left=0;bottom=0;right=0;align=left;spacingLeft=6;" parent="K4VyJsf5_Tr9AWNzBYGl-185" vertex="1">
          <mxGeometry x="30" width="570" height="30" as="geometry">
            <mxRectangle width="570" height="30" as="alternateBounds" />
          </mxGeometry>
        </mxCell>
        <mxCell id="I754h9vJWgT4fxiDuq0E-1" style="shape=partialRectangle;collapsible=0;dropTarget=0;pointerEvents=0;fillColor=none;points=[[0,0.5],[1,0.5]];portConstraint=eastwest;top=0;left=0;right=0;bottom=0;" vertex="1" parent="K4VyJsf5_Tr9AWNzBYGl-11">
          <mxGeometry y="300" width="600" height="30" as="geometry" />
        </mxCell>
        <mxCell id="I754h9vJWgT4fxiDuq0E-2" style="shape=partialRectangle;overflow=hidden;connectable=0;fillColor=none;top=0;left=0;bottom=0;right=0;" vertex="1" parent="I754h9vJWgT4fxiDuq0E-1">
          <mxGeometry width="30" height="30" as="geometry">
            <mxRectangle width="30" height="30" as="alternateBounds" />
          </mxGeometry>
        </mxCell>
        <mxCell id="I754h9vJWgT4fxiDuq0E-3" value="cancelled TIMESTAMP," style="shape=partialRectangle;overflow=hidden;connectable=0;fillColor=none;top=0;left=0;bottom=0;right=0;align=left;spacingLeft=6;" vertex="1" parent="I754h9vJWgT4fxiDuq0E-1">
          <mxGeometry x="30" width="570" height="30" as="geometry">
            <mxRectangle width="570" height="30" as="alternateBounds" />
          </mxGeometry>
        </mxCell>
        <mxCell id="K4VyJsf5_Tr9AWNzBYGl-31" value="GENRES" style="shape=table;startSize=30;container=1;collapsible=1;childLayout=tableLayout;fixedRows=1;rowLines=0;fontStyle=1;align=center;resizeLast=1;" parent="1" vertex="1">
          <mxGeometry x="1205" y="1380" width="550" height="100" as="geometry" />
        </mxCell>
        <mxCell id="K4VyJsf5_Tr9AWNzBYGl-32" value="" style="shape=partialRectangle;collapsible=0;dropTarget=0;pointerEvents=0;fillColor=none;points=[[0,0.5],[1,0.5]];portConstraint=eastwest;top=0;left=0;right=0;bottom=1;" parent="K4VyJsf5_Tr9AWNzBYGl-31" vertex="1">
          <mxGeometry y="30" width="550" height="30" as="geometry" />
        </mxCell>
        <mxCell id="K4VyJsf5_Tr9AWNzBYGl-33" value="PK" style="shape=partialRectangle;overflow=hidden;connectable=0;fillColor=none;top=0;left=0;bottom=0;right=0;fontStyle=1;" parent="K4VyJsf5_Tr9AWNzBYGl-32" vertex="1">
          <mxGeometry width="30" height="30" as="geometry">
            <mxRectangle width="30" height="30" as="alternateBounds" />
          </mxGeometry>
        </mxCell>
        <mxCell id="K4VyJsf5_Tr9AWNzBYGl-34" value="id INT NOT NULL GENERATED ALWAYS AS IDENTITY (START WITH 1, INCREMENT BY 1), " style="shape=partialRectangle;overflow=hidden;connectable=0;fillColor=none;top=0;left=0;bottom=0;right=0;align=left;spacingLeft=6;fontStyle=5;" parent="K4VyJsf5_Tr9AWNzBYGl-32" vertex="1">
          <mxGeometry x="30" width="520" height="30" as="geometry">
            <mxRectangle width="520" height="30" as="alternateBounds" />
          </mxGeometry>
        </mxCell>
        <mxCell id="K4VyJsf5_Tr9AWNzBYGl-35" value="" style="shape=partialRectangle;collapsible=0;dropTarget=0;pointerEvents=0;fillColor=none;points=[[0,0.5],[1,0.5]];portConstraint=eastwest;top=0;left=0;right=0;bottom=0;" parent="K4VyJsf5_Tr9AWNzBYGl-31" vertex="1">
          <mxGeometry y="60" width="550" height="30" as="geometry" />
        </mxCell>
        <mxCell id="K4VyJsf5_Tr9AWNzBYGl-36" value="" style="shape=partialRectangle;overflow=hidden;connectable=0;fillColor=none;top=0;left=0;bottom=0;right=0;" parent="K4VyJsf5_Tr9AWNzBYGl-35" vertex="1">
          <mxGeometry width="30" height="30" as="geometry">
            <mxRectangle width="30" height="30" as="alternateBounds" />
          </mxGeometry>
        </mxCell>
        <mxCell id="K4VyJsf5_Tr9AWNzBYGl-37" value="name VARCHAR(250) NOT NULL" style="shape=partialRectangle;overflow=hidden;connectable=0;fillColor=none;top=0;left=0;bottom=0;right=0;align=left;spacingLeft=6;" parent="K4VyJsf5_Tr9AWNzBYGl-35" vertex="1">
          <mxGeometry x="30" width="520" height="30" as="geometry">
            <mxRectangle width="520" height="30" as="alternateBounds" />
          </mxGeometry>
        </mxCell>
        <mxCell id="K4VyJsf5_Tr9AWNzBYGl-41" value="BOOK_HAS_GENRE" style="shape=table;startSize=30;container=1;collapsible=1;childLayout=tableLayout;fixedRows=1;rowLines=0;fontStyle=1;align=center;resizeLast=1;" parent="1" vertex="1">
          <mxGeometry x="775" y="1380" width="330" height="100" as="geometry" />
        </mxCell>
        <mxCell id="K4VyJsf5_Tr9AWNzBYGl-45" value="" style="shape=partialRectangle;collapsible=0;dropTarget=0;pointerEvents=0;fillColor=none;points=[[0,0.5],[1,0.5]];portConstraint=eastwest;top=0;left=0;right=0;bottom=0;" parent="K4VyJsf5_Tr9AWNzBYGl-41" vertex="1">
          <mxGeometry y="30" width="330" height="30" as="geometry" />
        </mxCell>
        <mxCell id="K4VyJsf5_Tr9AWNzBYGl-46" value="FK1" style="shape=partialRectangle;overflow=hidden;connectable=0;fillColor=none;top=0;left=0;bottom=0;right=0;" parent="K4VyJsf5_Tr9AWNzBYGl-45" vertex="1">
          <mxGeometry width="30" height="30" as="geometry">
            <mxRectangle width="30" height="30" as="alternateBounds" />
          </mxGeometry>
        </mxCell>
        <mxCell id="K4VyJsf5_Tr9AWNzBYGl-47" value="book_id INT NOT NULL REFERENCES BOOKS(id)," style="shape=partialRectangle;overflow=hidden;connectable=0;fillColor=none;top=0;left=0;bottom=0;right=0;align=left;spacingLeft=6;" parent="K4VyJsf5_Tr9AWNzBYGl-45" vertex="1">
          <mxGeometry x="30" width="300" height="30" as="geometry">
            <mxRectangle width="300" height="30" as="alternateBounds" />
          </mxGeometry>
        </mxCell>
        <mxCell id="K4VyJsf5_Tr9AWNzBYGl-48" value="" style="shape=partialRectangle;collapsible=0;dropTarget=0;pointerEvents=0;fillColor=none;points=[[0,0.5],[1,0.5]];portConstraint=eastwest;top=0;left=0;right=0;bottom=0;" parent="K4VyJsf5_Tr9AWNzBYGl-41" vertex="1">
          <mxGeometry y="60" width="330" height="30" as="geometry" />
        </mxCell>
        <mxCell id="K4VyJsf5_Tr9AWNzBYGl-49" value="" style="shape=partialRectangle;overflow=hidden;connectable=0;fillColor=none;top=0;left=0;bottom=0;right=0;" parent="K4VyJsf5_Tr9AWNzBYGl-48" vertex="1">
          <mxGeometry width="30" height="30" as="geometry">
            <mxRectangle width="30" height="30" as="alternateBounds" />
          </mxGeometry>
        </mxCell>
        <mxCell id="K4VyJsf5_Tr9AWNzBYGl-50" value="genre_id INT NOT NULL REFERENCES GENRES(id)" style="shape=partialRectangle;overflow=hidden;connectable=0;fillColor=none;top=0;left=0;bottom=0;right=0;align=left;spacingLeft=6;" parent="K4VyJsf5_Tr9AWNzBYGl-48" vertex="1">
          <mxGeometry x="30" width="300" height="30" as="geometry">
            <mxRectangle width="300" height="30" as="alternateBounds" />
          </mxGeometry>
        </mxCell>
        <mxCell id="K4VyJsf5_Tr9AWNzBYGl-51" value="AUTHORS" style="shape=table;startSize=30;container=1;collapsible=1;childLayout=tableLayout;fixedRows=1;rowLines=0;fontStyle=1;align=center;resizeLast=1;" parent="1" vertex="1">
          <mxGeometry x="1205" y="1510" width="540" height="100" as="geometry" />
        </mxCell>
        <mxCell id="K4VyJsf5_Tr9AWNzBYGl-52" value="" style="shape=partialRectangle;collapsible=0;dropTarget=0;pointerEvents=0;fillColor=none;points=[[0,0.5],[1,0.5]];portConstraint=eastwest;top=0;left=0;right=0;bottom=1;" parent="K4VyJsf5_Tr9AWNzBYGl-51" vertex="1">
          <mxGeometry y="30" width="540" height="30" as="geometry" />
        </mxCell>
        <mxCell id="K4VyJsf5_Tr9AWNzBYGl-53" value="PK" style="shape=partialRectangle;overflow=hidden;connectable=0;fillColor=none;top=0;left=0;bottom=0;right=0;fontStyle=1;" parent="K4VyJsf5_Tr9AWNzBYGl-52" vertex="1">
          <mxGeometry width="30" height="30" as="geometry">
            <mxRectangle width="30" height="30" as="alternateBounds" />
          </mxGeometry>
        </mxCell>
        <mxCell id="K4VyJsf5_Tr9AWNzBYGl-54" value="id INT NOT NULL GENERATED ALWAYS AS IDENTITY (START WITH 1, INCREMENT BY 1)," style="shape=partialRectangle;overflow=hidden;connectable=0;fillColor=none;top=0;left=0;bottom=0;right=0;align=left;spacingLeft=6;fontStyle=5;" parent="K4VyJsf5_Tr9AWNzBYGl-52" vertex="1">
          <mxGeometry x="30" width="510" height="30" as="geometry">
            <mxRectangle width="510" height="30" as="alternateBounds" />
          </mxGeometry>
        </mxCell>
        <mxCell id="K4VyJsf5_Tr9AWNzBYGl-55" value="" style="shape=partialRectangle;collapsible=0;dropTarget=0;pointerEvents=0;fillColor=none;points=[[0,0.5],[1,0.5]];portConstraint=eastwest;top=0;left=0;right=0;bottom=0;" parent="K4VyJsf5_Tr9AWNzBYGl-51" vertex="1">
          <mxGeometry y="60" width="540" height="30" as="geometry" />
        </mxCell>
        <mxCell id="K4VyJsf5_Tr9AWNzBYGl-56" value="" style="shape=partialRectangle;overflow=hidden;connectable=0;fillColor=none;top=0;left=0;bottom=0;right=0;" parent="K4VyJsf5_Tr9AWNzBYGl-55" vertex="1">
          <mxGeometry width="30" height="30" as="geometry">
            <mxRectangle width="30" height="30" as="alternateBounds" />
          </mxGeometry>
        </mxCell>
        <mxCell id="K4VyJsf5_Tr9AWNzBYGl-57" value="name VARCHAR(50) NOT NULL" style="shape=partialRectangle;overflow=hidden;connectable=0;fillColor=none;top=0;left=0;bottom=0;right=0;align=left;spacingLeft=6;" parent="K4VyJsf5_Tr9AWNzBYGl-55" vertex="1">
          <mxGeometry x="30" width="510" height="30" as="geometry">
            <mxRectangle width="510" height="30" as="alternateBounds" />
          </mxGeometry>
        </mxCell>
        <mxCell id="K4VyJsf5_Tr9AWNzBYGl-61" value="BOOK_HAS_AUTHOR" style="shape=table;startSize=30;container=1;collapsible=1;childLayout=tableLayout;fixedRows=1;rowLines=0;fontStyle=1;align=center;resizeLast=1;" parent="1" vertex="1">
          <mxGeometry x="775" y="1510" width="340" height="100" as="geometry" />
        </mxCell>
        <mxCell id="K4VyJsf5_Tr9AWNzBYGl-65" value="" style="shape=partialRectangle;collapsible=0;dropTarget=0;pointerEvents=0;fillColor=none;points=[[0,0.5],[1,0.5]];portConstraint=eastwest;top=0;left=0;right=0;bottom=0;" parent="K4VyJsf5_Tr9AWNzBYGl-61" vertex="1">
          <mxGeometry y="30" width="340" height="30" as="geometry" />
        </mxCell>
        <mxCell id="K4VyJsf5_Tr9AWNzBYGl-66" value="FK1" style="shape=partialRectangle;overflow=hidden;connectable=0;fillColor=none;top=0;left=0;bottom=0;right=0;" parent="K4VyJsf5_Tr9AWNzBYGl-65" vertex="1">
          <mxGeometry width="30" height="30" as="geometry">
            <mxRectangle width="30" height="30" as="alternateBounds" />
          </mxGeometry>
        </mxCell>
        <mxCell id="K4VyJsf5_Tr9AWNzBYGl-67" value="book_id INT NOT NULL REFERENCES BOOKS(id)" style="shape=partialRectangle;overflow=hidden;connectable=0;fillColor=none;top=0;left=0;bottom=0;right=0;align=left;spacingLeft=6;" parent="K4VyJsf5_Tr9AWNzBYGl-65" vertex="1">
          <mxGeometry x="30" width="310" height="30" as="geometry">
            <mxRectangle width="310" height="30" as="alternateBounds" />
          </mxGeometry>
        </mxCell>
        <mxCell id="K4VyJsf5_Tr9AWNzBYGl-68" value="" style="shape=partialRectangle;collapsible=0;dropTarget=0;pointerEvents=0;fillColor=none;points=[[0,0.5],[1,0.5]];portConstraint=eastwest;top=0;left=0;right=0;bottom=0;" parent="K4VyJsf5_Tr9AWNzBYGl-61" vertex="1">
          <mxGeometry y="60" width="340" height="30" as="geometry" />
        </mxCell>
        <mxCell id="K4VyJsf5_Tr9AWNzBYGl-69" value="" style="shape=partialRectangle;overflow=hidden;connectable=0;fillColor=none;top=0;left=0;bottom=0;right=0;" parent="K4VyJsf5_Tr9AWNzBYGl-68" vertex="1">
          <mxGeometry width="30" height="30" as="geometry">
            <mxRectangle width="30" height="30" as="alternateBounds" />
          </mxGeometry>
        </mxCell>
        <mxCell id="K4VyJsf5_Tr9AWNzBYGl-70" value="author_id INT NOT NULL REFERENCES AUTHORS(id)," style="shape=partialRectangle;overflow=hidden;connectable=0;fillColor=none;top=0;left=0;bottom=0;right=0;align=left;spacingLeft=6;" parent="K4VyJsf5_Tr9AWNzBYGl-68" vertex="1">
          <mxGeometry x="30" width="310" height="30" as="geometry">
            <mxRectangle width="310" height="30" as="alternateBounds" />
          </mxGeometry>
        </mxCell>
        <mxCell id="K4VyJsf5_Tr9AWNzBYGl-71" value="FK2" style="shape=partialRectangle;overflow=hidden;connectable=0;fillColor=none;top=0;left=0;bottom=0;right=0;" parent="1" vertex="1">
          <mxGeometry x="775" y="1440" width="30" height="30" as="geometry">
            <mxRectangle width="30" height="30" as="alternateBounds" />
          </mxGeometry>
        </mxCell>
        <mxCell id="K4VyJsf5_Tr9AWNzBYGl-72" value="FK2" style="shape=partialRectangle;overflow=hidden;connectable=0;fillColor=none;top=0;left=0;bottom=0;right=0;" parent="1" vertex="1">
          <mxGeometry x="775" y="1570" width="30" height="30" as="geometry">
            <mxRectangle width="30" height="30" as="alternateBounds" />
          </mxGeometry>
        </mxCell>
        <mxCell id="K4VyJsf5_Tr9AWNzBYGl-73" value="" style="shape=partialRectangle;overflow=hidden;connectable=0;fillColor=none;top=0;left=0;bottom=0;right=0;" parent="1" vertex="1">
          <mxGeometry x="329" y="1531" width="30" height="30" as="geometry">
            <mxRectangle width="30" height="30" as="alternateBounds" />
          </mxGeometry>
        </mxCell>
        <mxCell id="K4VyJsf5_Tr9AWNzBYGl-75" value="" style="shape=partialRectangle;collapsible=0;dropTarget=0;pointerEvents=0;fillColor=none;points=[[0,0.5],[1,0.5]];portConstraint=eastwest;top=0;left=0;right=0;bottom=0;" parent="1" vertex="1">
          <mxGeometry x="85" y="1470" width="550" height="30" as="geometry" />
        </mxCell>
        <mxCell id="K4VyJsf5_Tr9AWNzBYGl-76" value="" style="shape=partialRectangle;overflow=hidden;connectable=0;fillColor=none;top=0;left=0;bottom=0;right=0;" parent="K4VyJsf5_Tr9AWNzBYGl-75" vertex="1">
          <mxGeometry width="30" height="30" as="geometry">
            <mxRectangle width="30" height="30" as="alternateBounds" />
          </mxGeometry>
        </mxCell>
        <mxCell id="K4VyJsf5_Tr9AWNzBYGl-77" value="edition VARCHAR(25) NOT NULL," style="shape=partialRectangle;overflow=hidden;connectable=0;fillColor=none;top=0;left=0;bottom=0;right=0;align=left;spacingLeft=6;" parent="K4VyJsf5_Tr9AWNzBYGl-75" vertex="1">
          <mxGeometry x="30" width="520" height="30" as="geometry">
            <mxRectangle width="520" height="30" as="alternateBounds" />
          </mxGeometry>
        </mxCell>
        <mxCell id="K4VyJsf5_Tr9AWNzBYGl-78" value="" style="shape=partialRectangle;collapsible=0;dropTarget=0;pointerEvents=0;fillColor=none;points=[[0,0.5],[1,0.5]];portConstraint=eastwest;top=0;left=0;right=0;bottom=0;" parent="1" vertex="1">
          <mxGeometry x="85" y="1500" width="550" height="30" as="geometry" />
        </mxCell>
        <mxCell id="K4VyJsf5_Tr9AWNzBYGl-79" value="" style="shape=partialRectangle;overflow=hidden;connectable=0;fillColor=none;top=0;left=0;bottom=0;right=0;" parent="K4VyJsf5_Tr9AWNzBYGl-78" vertex="1">
          <mxGeometry width="30" height="30" as="geometry">
            <mxRectangle width="30" height="30" as="alternateBounds" />
          </mxGeometry>
        </mxCell>
        <mxCell id="K4VyJsf5_Tr9AWNzBYGl-80" value="sales_price DOUBLE NOT NULL," style="shape=partialRectangle;overflow=hidden;connectable=0;fillColor=none;top=0;left=0;bottom=0;right=0;align=left;spacingLeft=6;" parent="K4VyJsf5_Tr9AWNzBYGl-78" vertex="1">
          <mxGeometry x="30" width="520" height="30" as="geometry">
            <mxRectangle width="520" height="30" as="alternateBounds" />
          </mxGeometry>
        </mxCell>
        <mxCell id="K4VyJsf5_Tr9AWNzBYGl-81" value="" style="shape=partialRectangle;collapsible=0;dropTarget=0;pointerEvents=0;fillColor=none;points=[[0,0.5],[1,0.5]];portConstraint=eastwest;top=0;left=0;right=0;bottom=0;" parent="1" vertex="1">
          <mxGeometry x="85" y="1530" width="550" height="30" as="geometry" />
        </mxCell>
        <mxCell id="K4VyJsf5_Tr9AWNzBYGl-82" value="" style="shape=partialRectangle;overflow=hidden;connectable=0;fillColor=none;top=0;left=0;bottom=0;right=0;" parent="K4VyJsf5_Tr9AWNzBYGl-81" vertex="1">
          <mxGeometry width="30" height="30" as="geometry">
            <mxRectangle width="30" height="30" as="alternateBounds" />
          </mxGeometry>
        </mxCell>
        <mxCell id="K4VyJsf5_Tr9AWNzBYGl-83" value="publish_year INT NOT NULL," style="shape=partialRectangle;overflow=hidden;connectable=0;fillColor=none;top=0;left=0;bottom=0;right=0;align=left;spacingLeft=6;" parent="K4VyJsf5_Tr9AWNzBYGl-81" vertex="1">
          <mxGeometry x="30" width="520" height="30" as="geometry">
            <mxRectangle width="520" height="30" as="alternateBounds" />
          </mxGeometry>
        </mxCell>
        <mxCell id="K4VyJsf5_Tr9AWNzBYGl-87" value="" style="shape=partialRectangle;collapsible=0;dropTarget=0;pointerEvents=0;fillColor=none;points=[[0,0.5],[1,0.5]];portConstraint=eastwest;top=0;left=0;right=0;bottom=0;" parent="1" vertex="1">
          <mxGeometry x="85" y="1560" width="550" height="30" as="geometry" />
        </mxCell>
        <mxCell id="K4VyJsf5_Tr9AWNzBYGl-88" value="" style="shape=partialRectangle;overflow=hidden;connectable=0;fillColor=none;top=0;left=0;bottom=0;right=0;" parent="K4VyJsf5_Tr9AWNzBYGl-87" vertex="1">
          <mxGeometry width="30" height="30" as="geometry">
            <mxRectangle width="30" height="30" as="alternateBounds" />
          </mxGeometry>
        </mxCell>
        <mxCell id="K4VyJsf5_Tr9AWNzBYGl-89" value="thumbnail BLOB," style="shape=partialRectangle;overflow=hidden;connectable=0;fillColor=none;top=0;left=0;bottom=0;right=0;align=left;spacingLeft=6;" parent="K4VyJsf5_Tr9AWNzBYGl-87" vertex="1">
          <mxGeometry x="30" width="520" height="30" as="geometry">
            <mxRectangle width="520" height="30" as="alternateBounds" />
          </mxGeometry>
        </mxCell>
        <mxCell id="K4VyJsf5_Tr9AWNzBYGl-90" value="" style="shape=partialRectangle;overflow=hidden;connectable=0;fillColor=none;top=0;left=0;bottom=0;right=0;" parent="1" vertex="1">
          <mxGeometry x="85" y="1470" width="30" height="30" as="geometry">
            <mxRectangle width="30" height="30" as="alternateBounds" />
          </mxGeometry>
        </mxCell>
        <mxCell id="K4VyJsf5_Tr9AWNzBYGl-91" value="" style="shape=partialRectangle;overflow=hidden;connectable=0;fillColor=none;top=0;left=0;bottom=0;right=0;" parent="1" vertex="1">
          <mxGeometry x="85" y="1500" width="30" height="30" as="geometry">
            <mxRectangle width="30" height="30" as="alternateBounds" />
          </mxGeometry>
        </mxCell>
        <mxCell id="K4VyJsf5_Tr9AWNzBYGl-92" value="" style="shape=partialRectangle;overflow=hidden;connectable=0;fillColor=none;top=0;left=0;bottom=0;right=0;" parent="1" vertex="1">
          <mxGeometry x="85" y="1530" width="30" height="30" as="geometry">
            <mxRectangle width="30" height="30" as="alternateBounds" />
          </mxGeometry>
        </mxCell>
        <mxCell id="K4VyJsf5_Tr9AWNzBYGl-93" value="" style="shape=partialRectangle;overflow=hidden;connectable=0;fillColor=none;top=0;left=0;bottom=0;right=0;" parent="1" vertex="1">
          <mxGeometry x="85" y="1560" width="30" height="30" as="geometry">
            <mxRectangle width="30" height="30" as="alternateBounds" />
          </mxGeometry>
        </mxCell>
        <mxCell id="K4VyJsf5_Tr9AWNzBYGl-212" value="" style="edgeStyle=entityRelationEdgeStyle;fontSize=12;html=1;endArrow=ERzeroToOne;endFill=1;rounded=0;exitX=0.25;exitY=1;exitDx=0;exitDy=0;entryX=0.265;entryY=-0.003;entryDx=0;entryDy=0;entryPerimeter=0;" parent="1" source="C-vyLk0tnHw3VtMMgP7b-2" target="C-vyLk0tnHw3VtMMgP7b-23" edge="1">
          <mxGeometry width="100" height="100" relative="1" as="geometry">
            <mxPoint x="485" y="1300" as="sourcePoint" />
            <mxPoint x="835" y="1750" as="targetPoint" />
          </mxGeometry>
        </mxCell>
        <mxCell id="K4VyJsf5_Tr9AWNzBYGl-275" value="ORDER_HAS_PRODUCT" style="shape=table;startSize=30;container=1;collapsible=1;childLayout=tableLayout;fixedRows=1;rowLines=0;fontStyle=1;align=center;resizeLast=1;" parent="1" vertex="1">
          <mxGeometry x="802" y="1066" width="360" height="158" as="geometry" />
        </mxCell>
        <mxCell id="K4VyJsf5_Tr9AWNzBYGl-276" value="" style="shape=partialRectangle;collapsible=0;dropTarget=0;pointerEvents=0;fillColor=none;points=[[0,0.5],[1,0.5]];portConstraint=eastwest;top=0;left=0;right=0;bottom=0;" parent="K4VyJsf5_Tr9AWNzBYGl-275" vertex="1">
          <mxGeometry y="30" width="360" height="30" as="geometry" />
        </mxCell>
        <mxCell id="K4VyJsf5_Tr9AWNzBYGl-277" value="FK1" style="shape=partialRectangle;overflow=hidden;connectable=0;fillColor=none;top=0;left=0;bottom=0;right=0;" parent="K4VyJsf5_Tr9AWNzBYGl-276" vertex="1">
          <mxGeometry width="30" height="30" as="geometry">
            <mxRectangle width="30" height="30" as="alternateBounds" />
          </mxGeometry>
        </mxCell>
        <mxCell id="K4VyJsf5_Tr9AWNzBYGl-278" value="order_id INT NOT NULL REFERENCES ORDERS(order_id)," style="shape=partialRectangle;overflow=hidden;connectable=0;fillColor=none;top=0;left=0;bottom=0;right=0;align=left;spacingLeft=6;" parent="K4VyJsf5_Tr9AWNzBYGl-276" vertex="1">
          <mxGeometry x="30" width="330" height="30" as="geometry">
            <mxRectangle width="330" height="30" as="alternateBounds" />
          </mxGeometry>
        </mxCell>
        <mxCell id="K4VyJsf5_Tr9AWNzBYGl-279" value="" style="shape=partialRectangle;collapsible=0;dropTarget=0;pointerEvents=0;fillColor=none;points=[[0,0.5],[1,0.5]];portConstraint=eastwest;top=0;left=0;right=0;bottom=0;" parent="K4VyJsf5_Tr9AWNzBYGl-275" vertex="1">
          <mxGeometry y="60" width="360" height="30" as="geometry" />
        </mxCell>
        <mxCell id="K4VyJsf5_Tr9AWNzBYGl-280" value="FK2" style="shape=partialRectangle;overflow=hidden;connectable=0;fillColor=none;top=0;left=0;bottom=0;right=0;" parent="K4VyJsf5_Tr9AWNzBYGl-279" vertex="1">
          <mxGeometry width="30" height="30" as="geometry">
            <mxRectangle width="30" height="30" as="alternateBounds" />
          </mxGeometry>
        </mxCell>
        <mxCell id="K4VyJsf5_Tr9AWNzBYGl-281" value="book_id INT NOT NULL REFERENCES BOOK(book_id)" style="shape=partialRectangle;overflow=hidden;connectable=0;fillColor=none;top=0;left=0;bottom=0;right=0;align=left;spacingLeft=6;" parent="K4VyJsf5_Tr9AWNzBYGl-279" vertex="1">
          <mxGeometry x="30" width="330" height="30" as="geometry">
            <mxRectangle width="330" height="30" as="alternateBounds" />
          </mxGeometry>
        </mxCell>
        <mxCell id="K4VyJsf5_Tr9AWNzBYGl-282" style="shape=partialRectangle;collapsible=0;dropTarget=0;pointerEvents=0;fillColor=none;points=[[0,0.5],[1,0.5]];portConstraint=eastwest;top=0;left=0;right=0;bottom=0;" parent="K4VyJsf5_Tr9AWNzBYGl-275" vertex="1">
          <mxGeometry y="90" width="360" height="29" as="geometry" />
        </mxCell>
        <mxCell id="K4VyJsf5_Tr9AWNzBYGl-283" style="shape=partialRectangle;overflow=hidden;connectable=0;fillColor=none;top=0;left=0;bottom=0;right=0;" parent="K4VyJsf5_Tr9AWNzBYGl-282" vertex="1">
          <mxGeometry width="30" height="29" as="geometry">
            <mxRectangle width="30" height="29" as="alternateBounds" />
          </mxGeometry>
        </mxCell>
        <mxCell id="K4VyJsf5_Tr9AWNzBYGl-284" value="quantity SMALLINT NOT NULL" style="shape=partialRectangle;overflow=hidden;connectable=0;fillColor=none;top=0;left=0;bottom=0;right=0;align=left;spacingLeft=6;" parent="K4VyJsf5_Tr9AWNzBYGl-282" vertex="1">
          <mxGeometry x="30" width="330" height="29" as="geometry">
            <mxRectangle width="330" height="29" as="alternateBounds" />
          </mxGeometry>
        </mxCell>
        <mxCell id="K4VyJsf5_Tr9AWNzBYGl-364" style="shape=partialRectangle;collapsible=0;dropTarget=0;pointerEvents=0;fillColor=none;points=[[0,0.5],[1,0.5]];portConstraint=eastwest;top=0;left=0;right=0;bottom=0;" parent="K4VyJsf5_Tr9AWNzBYGl-275" vertex="1">
          <mxGeometry y="119" width="360" height="29" as="geometry" />
        </mxCell>
        <mxCell id="K4VyJsf5_Tr9AWNzBYGl-365" style="shape=partialRectangle;overflow=hidden;connectable=0;fillColor=none;top=0;left=0;bottom=0;right=0;" parent="K4VyJsf5_Tr9AWNzBYGl-364" vertex="1">
          <mxGeometry width="30" height="29" as="geometry">
            <mxRectangle width="30" height="29" as="alternateBounds" />
          </mxGeometry>
        </mxCell>
        <mxCell id="K4VyJsf5_Tr9AWNzBYGl-366" value="price_per_item DOUBLE NOT NULL" style="shape=partialRectangle;overflow=hidden;connectable=0;fillColor=none;top=0;left=0;bottom=0;right=0;align=left;spacingLeft=6;" parent="K4VyJsf5_Tr9AWNzBYGl-364" vertex="1">
          <mxGeometry x="30" width="330" height="29" as="geometry">
            <mxRectangle width="330" height="29" as="alternateBounds" />
          </mxGeometry>
        </mxCell>
        <mxCell id="K4VyJsf5_Tr9AWNzBYGl-288" value="" style="edgeStyle=entityRelationEdgeStyle;fontSize=12;html=1;endArrow=ERoneToMany;startArrow=ERmandOne;rounded=0;exitX=0.5;exitY=1;exitDx=0;exitDy=0;entryX=0.645;entryY=-0.007;entryDx=0;entryDy=0;entryPerimeter=0;" parent="1" source="K4VyJsf5_Tr9AWNzBYGl-11" target="K4VyJsf5_Tr9AWNzBYGl-275" edge="1">
          <mxGeometry width="100" height="100" relative="1" as="geometry">
            <mxPoint x="1425" y="992" as="sourcePoint" />
            <mxPoint x="1525" y="892" as="targetPoint" />
          </mxGeometry>
        </mxCell>
        <mxCell id="K4VyJsf5_Tr9AWNzBYGl-289" value="" style="edgeStyle=entityRelationEdgeStyle;fontSize=12;html=1;endArrow=ERoneToMany;startArrow=ERmandOne;rounded=0;exitX=1.004;exitY=0.152;exitDx=0;exitDy=0;entryX=0.5;entryY=1;entryDx=0;entryDy=0;exitPerimeter=0;" parent="1" source="C-vyLk0tnHw3VtMMgP7b-23" target="K4VyJsf5_Tr9AWNzBYGl-275" edge="1">
          <mxGeometry width="100" height="100" relative="1" as="geometry">
            <mxPoint x="1885" y="716" as="sourcePoint" />
            <mxPoint x="1525" y="830" as="targetPoint" />
          </mxGeometry>
        </mxCell>
        <mxCell id="K4VyJsf5_Tr9AWNzBYGl-290" value="" style="edgeStyle=entityRelationEdgeStyle;fontSize=12;html=1;endArrow=ERoneToMany;startArrow=ERmandOne;rounded=0;exitX=1;exitY=0.75;exitDx=0;exitDy=0;entryX=0;entryY=0.5;entryDx=0;entryDy=0;" parent="1" source="C-vyLk0tnHw3VtMMgP7b-23" target="K4VyJsf5_Tr9AWNzBYGl-65" edge="1">
          <mxGeometry width="100" height="100" relative="1" as="geometry">
            <mxPoint x="939" y="1095" as="sourcePoint" />
            <mxPoint x="969" y="1095" as="targetPoint" />
          </mxGeometry>
        </mxCell>
        <mxCell id="K4VyJsf5_Tr9AWNzBYGl-291" value="" style="edgeStyle=entityRelationEdgeStyle;fontSize=12;html=1;endArrow=ERmany;startArrow=ERmany;rounded=0;exitX=1;exitY=0.5;exitDx=0;exitDy=0;entryX=0;entryY=0.5;entryDx=0;entryDy=0;" parent="1" source="C-vyLk0tnHw3VtMMgP7b-27" target="K4VyJsf5_Tr9AWNzBYGl-45" edge="1">
          <mxGeometry width="100" height="100" relative="1" as="geometry">
            <mxPoint x="919" y="1821" as="sourcePoint" />
            <mxPoint x="1019" y="1721" as="targetPoint" />
          </mxGeometry>
        </mxCell>
        <mxCell id="K4VyJsf5_Tr9AWNzBYGl-292" value="" style="edgeStyle=entityRelationEdgeStyle;fontSize=12;html=1;endArrow=ERoneToMany;startArrow=ERmandOne;rounded=0;exitX=0;exitY=0.5;exitDx=0;exitDy=0;entryX=1;entryY=0.5;entryDx=0;entryDy=0;" parent="1" source="K4VyJsf5_Tr9AWNzBYGl-32" target="K4VyJsf5_Tr9AWNzBYGl-48" edge="1">
          <mxGeometry width="100" height="100" relative="1" as="geometry">
            <mxPoint x="1205" y="1034" as="sourcePoint" />
            <mxPoint x="1115" y="1064" as="targetPoint" />
          </mxGeometry>
        </mxCell>
        <mxCell id="K4VyJsf5_Tr9AWNzBYGl-293" value="" style="edgeStyle=entityRelationEdgeStyle;fontSize=12;html=1;endArrow=ERoneToMany;startArrow=ERmandOne;rounded=0;exitX=0;exitY=0.5;exitDx=0;exitDy=0;entryX=1;entryY=0.5;entryDx=0;entryDy=0;" parent="1" source="K4VyJsf5_Tr9AWNzBYGl-52" target="K4VyJsf5_Tr9AWNzBYGl-68" edge="1">
          <mxGeometry width="100" height="100" relative="1" as="geometry">
            <mxPoint x="1215" y="1435" as="sourcePoint" />
            <mxPoint x="1115" y="1465" as="targetPoint" />
          </mxGeometry>
        </mxCell>
        <mxCell id="K4VyJsf5_Tr9AWNzBYGl-295" value="" style="edgeStyle=entityRelationEdgeStyle;fontSize=12;html=1;endArrow=ERoneToMany;rounded=0;entryX=0;entryY=0.5;entryDx=0;entryDy=0;exitX=1;exitY=0.5;exitDx=0;exitDy=0;" parent="1" source="K4VyJsf5_Tr9AWNzBYGl-149" target="K4VyJsf5_Tr9AWNzBYGl-197" edge="1">
          <mxGeometry width="100" height="100" relative="1" as="geometry">
            <mxPoint x="645" y="802" as="sourcePoint" />
            <mxPoint x="195" y="1050" as="targetPoint" />
          </mxGeometry>
        </mxCell>
        <mxCell id="K4VyJsf5_Tr9AWNzBYGl-296" value="" style="edgeStyle=entityRelationEdgeStyle;fontSize=12;html=1;endArrow=ERoneToMany;rounded=0;entryX=0;entryY=0.5;entryDx=0;entryDy=0;exitX=0.5;exitY=0;exitDx=0;exitDy=0;" parent="1" source="C-vyLk0tnHw3VtMMgP7b-2" target="K4VyJsf5_Tr9AWNzBYGl-181" edge="1">
          <mxGeometry width="100" height="100" relative="1" as="geometry">
            <mxPoint x="645" y="769" as="sourcePoint" />
            <mxPoint x="815" y="974" as="targetPoint" />
          </mxGeometry>
        </mxCell>
        <mxCell id="K4VyJsf5_Tr9AWNzBYGl-298" value="" style="edgeStyle=entityRelationEdgeStyle;fontSize=12;html=1;endArrow=ERoneToMany;rounded=0;entryX=-0.003;entryY=-0.116;entryDx=0;entryDy=0;entryPerimeter=0;exitX=0.25;exitY=0;exitDx=0;exitDy=0;" parent="1" source="C-vyLk0tnHw3VtMMgP7b-2" target="K4VyJsf5_Tr9AWNzBYGl-167" edge="1">
          <mxGeometry width="100" height="100" relative="1" as="geometry">
            <mxPoint x="545" y="580" as="sourcePoint" />
            <mxPoint x="815" y="634" as="targetPoint" />
          </mxGeometry>
        </mxCell>
        <mxCell id="K4VyJsf5_Tr9AWNzBYGl-342" value="BASKET_HAS_PRODUCT" style="shape=table;startSize=30;container=1;collapsible=1;childLayout=tableLayout;fixedRows=1;rowLines=0;fontStyle=1;align=center;resizeLast=1;" parent="1" vertex="1">
          <mxGeometry x="345" y="1080" width="360" height="130" as="geometry" />
        </mxCell>
        <mxCell id="K4VyJsf5_Tr9AWNzBYGl-343" value="" style="shape=partialRectangle;collapsible=0;dropTarget=0;pointerEvents=0;fillColor=none;points=[[0,0.5],[1,0.5]];portConstraint=eastwest;top=0;left=0;right=0;bottom=0;" parent="K4VyJsf5_Tr9AWNzBYGl-342" vertex="1">
          <mxGeometry y="30" width="360" height="30" as="geometry" />
        </mxCell>
        <mxCell id="K4VyJsf5_Tr9AWNzBYGl-344" value="FK1" style="shape=partialRectangle;overflow=hidden;connectable=0;fillColor=none;top=0;left=0;bottom=0;right=0;" parent="K4VyJsf5_Tr9AWNzBYGl-343" vertex="1">
          <mxGeometry width="30" height="30" as="geometry">
            <mxRectangle width="30" height="30" as="alternateBounds" />
          </mxGeometry>
        </mxCell>
        <mxCell id="K4VyJsf5_Tr9AWNzBYGl-345" value="user_id INT NOT NULL REFERENCES ORDERS(id)," style="shape=partialRectangle;overflow=hidden;connectable=0;fillColor=none;top=0;left=0;bottom=0;right=0;align=left;spacingLeft=6;" parent="K4VyJsf5_Tr9AWNzBYGl-343" vertex="1">
          <mxGeometry x="30" width="330" height="30" as="geometry">
            <mxRectangle width="330" height="30" as="alternateBounds" />
          </mxGeometry>
        </mxCell>
        <mxCell id="K4VyJsf5_Tr9AWNzBYGl-346" value="" style="shape=partialRectangle;collapsible=0;dropTarget=0;pointerEvents=0;fillColor=none;points=[[0,0.5],[1,0.5]];portConstraint=eastwest;top=0;left=0;right=0;bottom=0;" parent="K4VyJsf5_Tr9AWNzBYGl-342" vertex="1">
          <mxGeometry y="60" width="360" height="30" as="geometry" />
        </mxCell>
        <mxCell id="K4VyJsf5_Tr9AWNzBYGl-347" value="FK2" style="shape=partialRectangle;overflow=hidden;connectable=0;fillColor=none;top=0;left=0;bottom=0;right=0;" parent="K4VyJsf5_Tr9AWNzBYGl-346" vertex="1">
          <mxGeometry width="30" height="30" as="geometry">
            <mxRectangle width="30" height="30" as="alternateBounds" />
          </mxGeometry>
        </mxCell>
        <mxCell id="K4VyJsf5_Tr9AWNzBYGl-348" value="book_id INT NOT NULL REFERENCES BOOKS(id)" style="shape=partialRectangle;overflow=hidden;connectable=0;fillColor=none;top=0;left=0;bottom=0;right=0;align=left;spacingLeft=6;" parent="K4VyJsf5_Tr9AWNzBYGl-346" vertex="1">
          <mxGeometry x="30" width="330" height="30" as="geometry">
            <mxRectangle width="330" height="30" as="alternateBounds" />
          </mxGeometry>
        </mxCell>
        <mxCell id="K4VyJsf5_Tr9AWNzBYGl-349" style="shape=partialRectangle;collapsible=0;dropTarget=0;pointerEvents=0;fillColor=none;points=[[0,0.5],[1,0.5]];portConstraint=eastwest;top=0;left=0;right=0;bottom=0;" parent="K4VyJsf5_Tr9AWNzBYGl-342" vertex="1">
          <mxGeometry y="90" width="360" height="30" as="geometry" />
        </mxCell>
        <mxCell id="K4VyJsf5_Tr9AWNzBYGl-350" style="shape=partialRectangle;overflow=hidden;connectable=0;fillColor=none;top=0;left=0;bottom=0;right=0;" parent="K4VyJsf5_Tr9AWNzBYGl-349" vertex="1">
          <mxGeometry width="30" height="30" as="geometry">
            <mxRectangle width="30" height="30" as="alternateBounds" />
          </mxGeometry>
        </mxCell>
        <mxCell id="K4VyJsf5_Tr9AWNzBYGl-351" value="quantity SMALLINT NOT NULL" style="shape=partialRectangle;overflow=hidden;connectable=0;fillColor=none;top=0;left=0;bottom=0;right=0;align=left;spacingLeft=6;" parent="K4VyJsf5_Tr9AWNzBYGl-349" vertex="1">
          <mxGeometry x="30" width="330" height="30" as="geometry">
            <mxRectangle width="330" height="30" as="alternateBounds" />
          </mxGeometry>
        </mxCell>
        <mxCell id="K4VyJsf5_Tr9AWNzBYGl-353" value="" style="edgeStyle=entityRelationEdgeStyle;fontSize=12;html=1;endArrow=ERzeroToMany;endFill=1;rounded=0;entryX=0.521;entryY=0.004;entryDx=0;entryDy=0;exitX=0.75;exitY=1;exitDx=0;exitDy=0;entryPerimeter=0;" parent="1" source="C-vyLk0tnHw3VtMMgP7b-2" target="K4VyJsf5_Tr9AWNzBYGl-342" edge="1">
          <mxGeometry width="100" height="100" relative="1" as="geometry">
            <mxPoint x="645" y="845" as="sourcePoint" />
            <mxPoint x="1554" y="1320" as="targetPoint" />
          </mxGeometry>
        </mxCell>
        <mxCell id="K4VyJsf5_Tr9AWNzBYGl-360" value="" style="edgeStyle=entityRelationEdgeStyle;fontSize=12;html=1;endArrow=ERoneToMany;startArrow=ERmandOne;rounded=0;entryX=0.5;entryY=1;entryDx=0;entryDy=0;exitX=0.643;exitY=-0.005;exitDx=0;exitDy=0;exitPerimeter=0;" parent="1" source="C-vyLk0tnHw3VtMMgP7b-23" target="K4VyJsf5_Tr9AWNzBYGl-342" edge="1">
          <mxGeometry width="100" height="100" relative="1" as="geometry">
            <mxPoint x="925" y="1400" as="sourcePoint" />
            <mxPoint x="1480" y="1171" as="targetPoint" />
          </mxGeometry>
        </mxCell>
        <mxCell id="K4VyJsf5_Tr9AWNzBYGl-362" value="" style="edgeStyle=entityRelationEdgeStyle;fontSize=12;html=1;endArrow=ERoneToMany;startArrow=ERmandOne;rounded=0;exitX=1;exitY=0.5;exitDx=0;exitDy=0;entryX=0.75;entryY=0;entryDx=0;entryDy=0;" parent="1" source="K4VyJsf5_Tr9AWNzBYGl-181" target="K4VyJsf5_Tr9AWNzBYGl-11" edge="1">
          <mxGeometry width="100" height="100" relative="1" as="geometry">
            <mxPoint x="1235" y="460" as="sourcePoint" />
            <mxPoint x="1335" y="360" as="targetPoint" />
          </mxGeometry>
        </mxCell>
        <mxCell id="K4VyJsf5_Tr9AWNzBYGl-363" value="" style="edgeStyle=entityRelationEdgeStyle;fontSize=12;html=1;endArrow=ERoneToMany;startArrow=ERmandOne;rounded=0;exitX=1;exitY=0.5;exitDx=0;exitDy=0;entryX=1;entryY=0;entryDx=0;entryDy=0;" parent="1" source="K4VyJsf5_Tr9AWNzBYGl-167" target="K4VyJsf5_Tr9AWNzBYGl-11" edge="1">
          <mxGeometry width="100" height="100" relative="1" as="geometry">
            <mxPoint x="1055" y="435" as="sourcePoint" />
            <mxPoint x="1135" y="680" as="targetPoint" />
          </mxGeometry>
        </mxCell>
      </root>
    </mxGraphModel>
  </diagram>
</mxfile>
